# xmcd
#
# Track frame offsets:
#	150
#	21702
#	40867
#	62983
#	82472
#	107746
#	128557
#	146333
#	165882
#	184008
#	204058
#	221483
#	237131
#	251781
#	273456
#	293581
#	313906
#
# Disc length: 4438 seconds
#
# Revision: 5
# Processed by: cddbd v1.5.2PL0 Copyright (c) Steve Scherf et al.
# Submitted via: EZCDAudioConverter 7.1.7.1
#
DISCID=f9115411
DTITLE=刘德华 - 我们的刘德华(国) Disc 02
DYEAR=2012
DGENRE=
TTITLE0=木鱼与金鱼
TTITLE1=上帝创造女人
TTITLE2=爱你一万年
TTITLE3=回家真好
TTITLE4=孤星泪
TTITLE5=冰雨
TTITLE6=马桶
TTITLE7=世界第一等
TTITLE8=笨小孩(合唱：刘德华／柯受良／吴宗宪)
TTITLE9=去年烟花特别多
TTITLE10=中国人
TTITLE11=爱如此神奇
TTITLE12=因为爱
TTITLE13=相思成灾
TTITLE14=每次醒来
TTITLE15=铁了心爱你
TTITLE16=真永远
EXTD=
EXTT0=
EXTT1=
EXTT2=
EXTT3=
EXTT4=
EXTT5=
EXTT6=
EXTT7=
EXTT8=
EXTT9=
EXTT10=
EXTT11=
EXTT12=
EXTT13=
EXTT14=
EXTT15=
EXTT16=
PLAYORDER=
